<?xml version="1.0" encoding="iso-8859-1"?>
<!-- Generator: Adobe Illustrator 19.0.0, SVG Export Plug-In . SVG Version: 6.00 Build 0)  -->
<svg version="1.1" id="Layer_1" xmlns="http://www.w3.org/2000/svg" xmlns:xlink="http://www.w3.org/1999/xlink" x="0px" y="0px"
	 viewBox="0 0 512 512" style="enable-background:new 0 0 512 512;" xml:space="preserve">
<path style="fill:#1A91A1;" d="M256,0c141.385,0,256,114.615,256,256S397.385,512,256,512S0,397.385,0,256S114.615,0,256,0z"/>
<path style="fill:#666666;" d="M122.725,312.21v195.448c0,0-23.537,0-36.516,0c-12.983,0-11.769-7.178-11.769-52.206
	S79.715,312.21,122.725,312.21z"/>
<path style="fill:#807D7D;" d="M111.091,388.041c0,2.434-1.095,4.425-2.434,4.425s-2.434-1.991-2.434-4.425v-69.924
	c0-2.434,1.095-4.425,2.434-4.425s2.434,1.991,2.434,4.425V388.041z"/>
<path style="fill:#666666;" d="M389.275,312.21v195.448c0,0,23.533,0,36.516,0c12.983,0,11.769-7.178,11.769-52.206
	S432.285,312.21,389.275,312.21z"/>
<path style="fill:#807D7D;" d="M400.909,388.041c0,2.434,1.095,4.425,2.434,4.425s2.434-1.991,2.434-4.425v-69.924
	c0-2.434-1.095-4.425-2.434-4.425s-2.434,1.991-2.434,4.425V388.041z"/>
<path style="fill:#ECF0F1;" d="M403.339,382.051c0,0,7.422,0.462,7.422,4.263c0,3.806,0,11.224,0,12.614s-1.575,1.298-2.503,1.298
	s-4.914,0-4.914,0s-3.991,0-4.914,0c-0.928,0-2.508,0.092-2.508-1.298s0-8.813,0-12.614s7.422-4.263,7.422-4.263H403.339z"/>
<g>
	<path style="fill:#FFFFFF;" d="M395.829,426.045c0,4.083,3.339,7.422,7.418,7.422h0.185c4.083,0,7.422-3.339,7.422-7.422
		l-2.226-24.484c0-4.083-1.113-6.679-5.196-6.679h-0.185c-4.078,0-5.191,2.596-5.191,6.679L395.829,426.045z M406.262,399.718
		L406.262,399.718c0,1.617-1.307,2.924-2.919,2.924c-1.612,0-2.924-1.307-2.924-2.924c0-1.612,1.312-2.919,2.924-2.919
		C404.96,396.799,406.262,398.11,406.262,399.718z M398.055,425.486L398.055,425.486c0-2.919,2.369-5.289,5.289-5.289
		s5.288,2.365,5.288,5.289c0,2.919-2.365,5.288-5.288,5.288C400.424,430.774,398.055,428.405,398.055,425.486z"/>
	<path style="fill:#FFFFFF;" d="M401.436,399.819c0,0.841,0.854,1.524,1.903,1.524c1.044,0,1.903-0.684,1.903-1.524v-17.727
		c0-0.836-0.854-1.524-1.903-1.524s-1.903,0.688-1.903,1.524V399.819z"/>
</g>
<path style="fill:#666666;" d="M238.236,89.119h61.134c3.944,0,7.173,3.229,7.173,7.173v27.292h-10.448v-15.842
	c0-1.326-1.085-2.406-2.406-2.406h-49.763c-1.326,0-2.406,1.081-2.406,2.406v15.842h-10.448V96.292c0-3.944,3.229-7.173,7.173-7.173
	H238.236z"/>
<path style="fill:#FBB429;" d="M247.363,85.318h40.377c3.478,0,6.318,2.841,6.318,6.318v9.639c0,3.478-2.845,6.318-6.318,6.318
	h-40.377c-3.478,0-6.318-2.841-6.318-6.318v-9.639C241.044,88.158,243.89,85.318,247.363,85.318z"/>
<path style="fill:#F5A209;" d="M293.551,104.269c-0.725,1.977-2.152,3.326-3.778,3.326h-44.437c-1.626,0-3.048-1.349-3.774-3.326
	H293.551z"/>
<path style="fill:#15BDB1;" d="M256,114.361c-124.744,0-138.997,55.993-138.997,116.047s0,238.583,0,257.247S120.25,512,139.727,512
	C159.204,512,256,512,256,512s96.8,0,116.273,0c19.477,0,22.724-5.681,22.724-24.346c0-18.669,0-197.198,0-257.247
	C394.997,170.354,380.739,114.361,256,114.361z"/>
<path style="fill:#FBB429;" d="M415.754,30.983l-88.916,252.753l-27.944-9.833L387.81,21.154L415.754,30.983z"/>
<g>
	<path style="fill:#FFFFFF;" d="M326.649,280.415l-9.824-3.455l0.388-1.109l9.824,3.455L326.649,280.415z M409.228,45.675
		L409.228,45.675l-9.829-3.455l0.388-1.109l9.824,3.455l-0.388,1.109H409.228z M410.262,42.742L410.262,42.742l0.388-1.109
		l-5.935-2.088l-0.388,1.113l5.935,2.088V42.742z M411.292,39.809L411.292,39.809l-5.93-2.088l0.388-1.109l5.931,2.088
		L411.292,39.809z M412.327,36.876L412.327,36.876l0.388-1.109l-5.931-2.088l-0.388,1.113l5.93,2.088V36.876z M413.362,33.943
		L413.362,33.943l-5.93-2.088l0.383-1.109l5.93,2.088l-0.383,1.113V33.943z M404.073,60.353L404.073,60.353l-9.824-3.459
		l0.388-1.109l9.824,3.459l-0.383,1.109H404.073z M405.108,57.416L405.108,57.416l0.388-1.109l-5.935-2.088l-0.388,1.113
		l5.935,2.088V57.416z M406.138,54.483L406.138,54.483l-5.935-2.088l0.383-1.109l5.935,2.083l-0.388,1.109L406.138,54.483z
		 M407.168,51.55L407.168,51.55l0.388-1.109l-5.931-2.088l-0.383,1.109l5.931,2.088H407.168z M408.202,48.617L408.202,48.617
		l0.388-1.113l-5.935-2.083l-0.388,1.109L408.202,48.617z M398.909,75.027L398.909,75.027l-9.824-3.455l0.383-1.109l9.824,3.455
		l-0.388,1.109H398.909z M399.944,72.094L399.944,72.094l0.388-1.113l-5.931-2.088l-0.388,1.109l5.931,2.088V72.094z
		 M400.974,69.157L400.974,69.157l-5.93-2.083l0.388-1.109l5.931,2.083L400.974,69.157z M402.009,66.229L402.009,66.229l0.393-1.109
		l-5.931-2.088l-0.393,1.109L402.009,66.229z M403.039,63.291L403.039,63.291l0.388-1.109l-5.931-2.088l-0.388,1.109L403.039,63.291
		z M393.75,89.701L393.75,89.701l-9.824-3.459l0.388-1.109l9.824,3.459l-0.383,1.113L393.75,89.701z M394.785,86.764L394.785,86.764
		l0.383-1.113l-5.935-2.088l-0.388,1.109l5.935,2.088L394.785,86.764z M395.815,83.831L395.815,83.831l-5.935-2.088l0.388-1.108
		l5.935,2.088L395.815,83.831z M396.845,80.898L396.845,80.898l0.383-1.109l-5.931-2.088l-0.383,1.109L396.845,80.898z
		 M397.879,77.965L397.879,77.965l0.388-1.109l-5.935-2.088l-0.388,1.109L397.879,77.965z M388.586,104.375L388.586,104.375
		l-9.824-3.455l0.388-1.113l9.824,3.455l-0.388,1.109V104.375z M389.621,101.442L389.621,101.442l0.388-1.113l-5.935-2.083
		l-0.388,1.109L389.621,101.442z M390.651,98.509L390.651,98.509l-5.931-2.088l0.388-1.109l5.935,2.088l-0.388,1.109H390.651z
		 M391.686,95.576L391.686,95.576l0.388-1.113l-5.935-2.088l-0.383,1.109l5.931,2.088V95.576z M392.72,92.639L392.72,92.639
		l0.383-1.109l-5.931-2.088l-0.388,1.109L392.72,92.639z M383.432,119.049L383.432,119.049l-9.824-3.459l0.388-1.109l9.824,3.459
		l-0.383,1.109H383.432z M384.462,116.116L384.462,116.116l0.388-1.113l-5.931-2.088l-0.388,1.109l5.931,2.088V116.116z
		 M385.496,113.183L385.496,113.183l-5.931-2.088l0.388-1.109l5.935,2.088l-0.388,1.109H385.496z M386.526,110.25L386.526,110.25
		l0.393-1.109l-5.935-2.088l-0.388,1.109L386.526,110.25z M387.561,107.313L387.561,107.313l0.383-1.109l-5.931-2.083l-0.383,1.109
		l5.931,2.088V107.313z M378.268,133.723L378.268,133.723l-9.824-3.459l0.393-1.109l9.824,3.459l-0.388,1.113L378.268,133.723z
		 M379.303,130.785L379.303,130.785l0.388-1.109l-5.935-2.088l-0.388,1.109L379.303,130.785z M380.333,127.852L380.333,127.852
		l-5.931-2.088l0.393-1.109l5.935,2.088l-0.393,1.109H380.333z M381.363,124.919L381.363,124.919l0.388-1.109l-5.93-2.088
		l-0.388,1.109L381.363,124.919z M382.397,121.982L382.397,121.982l0.383-1.109l-5.931-2.083l-0.388,1.109L382.397,121.982z
		 M373.109,148.392L373.109,148.392l-9.824-3.459l0.383-1.113l9.824,3.459l-0.388,1.113H373.109z M374.139,145.459L374.139,145.459
		l0.388-1.109l-5.93-2.088l-0.388,1.109L374.139,145.459z M375.174,142.521L375.174,142.521l-5.931-2.083l0.388-1.113l5.935,2.088
		l-0.388,1.109H375.174z M376.204,139.589L376.204,139.589l0.388-1.113l-5.931-2.088l-0.383,1.109l5.931,2.088L376.204,139.589z
		 M377.238,136.656L377.238,136.656l0.383-1.109l-5.93-2.088l-0.383,1.113L377.238,136.656z M367.95,163.066L367.95,163.066
		l-9.824-3.459l0.388-1.109l9.824,3.455l-0.383,1.113H367.95z M368.984,160.133L368.984,160.133l0.388-1.109l-5.935-2.088
		l-0.388,1.109L368.984,160.133z M370.014,157.2L370.014,157.2l-5.93-2.088l0.393-1.113l5.931,2.088L370.014,157.2z
		 M371.049,154.262L371.049,154.262l0.388-1.109l-5.935-2.083l-0.383,1.109l5.93,2.088V154.262z M372.084,151.329L372.084,151.329
		l0.383-1.109l-5.931-2.088l-0.388,1.113l5.931,2.083H372.084z M362.795,177.74L362.795,177.74l-9.824-3.459l0.388-1.108
		l9.824,3.455L362.795,177.74z M363.825,174.807L363.825,174.807l0.388-1.109l-5.935-2.088l-0.388,1.109L363.825,174.807z
		 M364.86,171.874L364.86,171.874l-5.93-2.088l0.383-1.113l5.935,2.088l-0.388,1.109V171.874z M365.894,168.941L365.894,168.941
		l0.388-1.109l-5.93-2.083l-0.383,1.109l5.93,2.083H365.894z M366.929,166.008L366.929,166.008l0.383-1.109l-5.931-2.088
		l-0.388,1.113L366.929,166.008z M357.636,192.418L357.636,192.418l-9.824-3.455l0.388-1.109l9.824,3.455l-0.388,1.113V192.418z
		 M358.671,189.485L358.671,189.485l0.388-1.109l-5.935-2.088l-0.388,1.113L358.671,189.485z M359.701,186.552L359.701,186.552
		l-5.931-2.088l0.388-1.113l5.931,2.088l-0.388,1.109V186.552z M360.735,183.615L360.735,183.615l0.388-1.109l-5.935-2.088
		l-0.383,1.109L360.735,183.615z M361.765,180.682L361.765,180.682l0.388-1.109l-5.93-2.088l-0.388,1.109L361.765,180.682z
		 M352.477,207.087L352.477,207.087l-9.824-3.459l0.388-1.109l9.824,3.459L352.477,207.087z M353.511,204.154L353.511,204.154
		l0.388-1.109l-5.935-2.088l-0.388,1.113l5.935,2.088V204.154z M354.541,201.221L354.541,201.221l-5.935-2.088l0.383-1.109
		l5.935,2.088l-0.388,1.113L354.541,201.221z M355.571,198.288L355.571,198.288l0.393-1.109l-5.935-2.088l-0.388,1.109
		L355.571,198.288z M356.606,195.351L356.606,195.351l0.388-1.109l-5.935-2.088l-0.388,1.113L356.606,195.351z M347.313,221.761
		L347.313,221.761l-9.824-3.455l0.388-1.109l9.824,3.455L347.313,221.761z M348.348,218.828L348.348,218.828l0.388-1.109
		l-5.931-2.088l-0.388,1.109L348.348,218.828z M349.378,215.895L349.378,215.895l-5.931-2.088l0.388-1.109l5.935,2.088l-0.388,1.113
		L349.378,215.895z M350.412,212.962L350.412,212.962l0.388-1.109l-5.935-2.088l-0.388,1.109L350.412,212.962z M351.447,210.029
		L351.447,210.029l0.383-1.113l-5.931-2.088l-0.383,1.113L351.447,210.029z M342.159,236.435L342.159,236.435l-9.824-3.459
		l0.388-1.109l9.824,3.459l-0.383,1.109H342.159z M343.189,233.497L343.189,233.497l0.388-1.109l-5.931-2.088l-0.388,1.109
		l5.931,2.083V233.497z M344.223,230.564L344.223,230.564l-5.931-2.088l0.388-1.109l5.935,2.088l-0.388,1.109H344.223z
		 M345.253,227.632L345.253,227.632l0.383-1.109l-5.93-2.088l-0.388,1.109l5.931,2.088H345.253z M346.288,224.699L346.288,224.699
		l0.383-1.109l-5.93-2.088l-0.388,1.113l5.935,2.088V224.699z M336.995,251.109L336.995,251.109l-9.824-3.459l0.388-1.109
		l9.824,3.459L336.995,251.109z M338.025,248.176L338.025,248.176l0.393-1.113l-5.931-2.088l-0.393,1.113L338.025,248.176z
		 M339.059,245.238L339.059,245.238l-5.931-2.088l0.393-1.113l5.935,2.088l-0.393,1.113H339.059z M340.094,242.305L340.094,242.305
		l0.393-1.109l-5.93-2.088l-0.393,1.109L340.094,242.305z M341.129,239.372L341.129,239.372l0.388-1.113l-5.931-2.088l-0.388,1.113
		L341.129,239.372z M331.84,265.778L331.84,265.778l-9.829-3.455l0.388-1.108l9.824,3.455L331.84,265.778z M332.87,262.845
		L332.87,262.845l0.388-1.108l-5.935-2.088l-0.388,1.108l5.93,2.088H332.87z M333.905,259.912L333.905,259.912l-5.931-2.088
		l0.388-1.108l5.931,2.083l-0.388,1.108V259.912z M334.939,256.979L334.939,256.979l0.388-1.109l-5.931-2.088l-0.383,1.113
		l5.931,2.083H334.939z M327.711,277.523L327.711,277.523l0.393-1.113l-5.931-2.088l-0.393,1.113L327.711,277.523z M328.746,274.591
		L328.746,274.591l-5.935-2.088l0.383-1.109l5.935,2.088l-0.388,1.108H328.746z M329.78,271.658L329.78,271.658l0.388-1.108
		l-5.935-2.088l-0.383,1.109L329.78,271.658z M330.81,268.725L330.81,268.725l0.388-1.113l-5.931-2.088l-0.388,1.109l5.931,2.088
		V268.725z M335.969,254.055L335.969,254.055l0.393-1.109l-5.935-2.088l-0.393,1.113l5.935,2.088V254.055z"/>
	<path style="fill:#FFFFFF;" d="M273.325,208.427l-124.753,26.604l-34.23-160.502l124.753-26.604L273.325,208.427z"/>
</g>
<path style="fill:#FF5B61;" d="M270.055,207.558l-124.753,26.604L111.072,73.66l124.753-26.609l34.23,160.502V207.558z"/>
<path style="fill:#ECF0F1;" d="M121.954,78.958c0.3,1.409-0.6,2.799-2.009,3.099c-1.409,0.3-2.794-0.6-3.095-2.009
	c-0.3-1.409,0.6-2.794,2.009-3.095c1.409-0.3,2.799,0.6,3.099,2.009L121.954,78.958z"/>
<path style="fill:#EC4B53;" d="M121.063,79.152c0.194,0.919-0.388,1.82-1.307,2.014c-0.915,0.194-1.82-0.388-2.014-1.307
	c-0.199-0.915,0.388-1.82,1.307-2.014C119.968,77.646,120.869,78.233,121.063,79.152z"/>
<path style="fill:#FFFFFF;" d="M120.051,79.364c0.125,0.587-0.323,1.187-0.998,1.33l-8.97,1.912
	c-0.674,0.143-1.326-0.217-1.45-0.804c-0.125-0.587,0.323-1.182,0.998-1.33l8.97-1.912c0.674-0.143,1.326,0.217,1.45,0.808V79.364z"
	/>
<path style="fill:#ECF0F1;" d="M123.686,87.082c0.3,1.409-0.6,2.794-2.009,3.095c-1.409,0.3-2.794-0.6-3.099-2.005
	c-0.3-1.409,0.6-2.799,2.009-3.099C121.996,84.773,123.381,85.674,123.686,87.082z"/>
<path style="fill:#EC4B53;" d="M122.795,87.272c0.194,0.919-0.388,1.82-1.307,2.014c-0.915,0.199-1.82-0.388-2.014-1.307
	c-0.199-0.919,0.388-1.82,1.307-2.014C121.695,85.771,122.601,86.353,122.795,87.272z"/>
<path style="fill:#FFFFFF;" d="M121.783,87.489c0.125,0.587-0.323,1.182-0.998,1.326l-8.97,1.912
	c-0.674,0.143-1.326-0.217-1.45-0.808c-0.125-0.587,0.323-1.182,0.998-1.326l8.97-1.912
	C121.007,86.537,121.658,86.898,121.783,87.489z"/>
<path style="fill:#ECF0F1;" d="M125.418,95.202c0.3,1.409-0.6,2.794-2.009,3.099c-1.409,0.3-2.794-0.6-3.095-2.009
	c-0.3-1.409,0.596-2.799,2.009-3.099c1.409-0.3,2.799,0.6,3.099,2.009H125.418z"/>
<path style="fill:#EC4B53;" d="M124.527,95.396c0.199,0.919-0.388,1.82-1.307,2.014c-0.915,0.199-1.82-0.388-2.014-1.307
	c-0.194-0.919,0.388-1.82,1.307-2.014C123.432,93.895,124.333,94.477,124.527,95.396z"/>
<path style="fill:#FFFFFF;" d="M123.515,95.609c0.125,0.587-0.323,1.182-0.998,1.326l-8.97,1.912
	c-0.674,0.143-1.326-0.217-1.45-0.808c-0.125-0.587,0.323-1.187,0.998-1.33l8.97-1.912c0.674-0.143,1.326,0.217,1.45,0.808V95.609z"
	/>
<path style="fill:#ECF0F1;" d="M127.15,103.327c0.3,1.409-0.596,2.799-2.009,3.099c-1.409,0.3-2.799-0.6-3.099-2.009
	c-0.3-1.409,0.6-2.794,2.009-3.095C125.46,101.017,126.845,101.918,127.15,103.327z"/>
<path style="fill:#EC4B53;" d="M126.259,103.516c0.194,0.919-0.388,1.82-1.307,2.014c-0.915,0.194-1.82-0.388-2.014-1.307
	c-0.199-0.915,0.388-1.82,1.307-2.014C125.159,102.01,126.065,102.597,126.259,103.516z"/>
<path style="fill:#FFFFFF;" d="M125.247,103.733c0.125,0.587-0.323,1.187-0.998,1.33l-8.97,1.912
	c-0.674,0.143-1.326-0.222-1.45-0.808c-0.125-0.587,0.323-1.182,0.998-1.326l8.97-1.917
	C124.471,102.782,125.123,103.146,125.247,103.733z"/>
<path style="fill:#ECF0F1;" d="M128.882,111.446c0.3,1.409-0.6,2.794-2.009,3.095c-1.409,0.3-2.794-0.6-3.099-2.009
	c-0.3-1.409,0.596-2.794,2.009-3.095C127.192,109.137,128.577,110.038,128.882,111.446z"/>
<path style="fill:#EC4B53;" d="M127.991,111.636c0.199,0.919-0.388,1.82-1.307,2.014c-0.915,0.194-1.82-0.388-2.014-1.307
	c-0.199-0.919,0.388-1.82,1.307-2.018c0.919-0.194,1.82,0.393,2.014,1.307V111.636z"/>
<path style="fill:#FFFFFF;" d="M126.979,111.853c0.125,0.587-0.323,1.182-0.998,1.326l-8.97,1.912
	c-0.674,0.143-1.326-0.217-1.45-0.804c-0.125-0.587,0.323-1.182,0.998-1.326l8.97-1.912c0.674-0.143,1.326,0.217,1.45,0.808V111.853
	z"/>
<path style="fill:#ECF0F1;" d="M130.614,119.571c0.3,1.409-0.6,2.794-2.009,3.099c-1.409,0.3-2.799-0.6-3.099-2.009
	c-0.3-1.409,0.6-2.794,2.009-3.099C128.924,117.261,130.309,118.162,130.614,119.571z"/>
<path style="fill:#EC4B53;" d="M129.723,119.76c0.194,0.915-0.388,1.82-1.307,2.014c-0.915,0.199-1.82-0.388-2.014-1.307
	c-0.199-0.919,0.388-1.82,1.307-2.014C128.624,118.259,129.529,118.841,129.723,119.76z"/>
<path style="fill:#FFFFFF;" d="M128.711,119.977c0.125,0.587-0.323,1.182-0.998,1.326l-8.97,1.912
	c-0.674,0.143-1.326-0.217-1.45-0.808c-0.125-0.591,0.323-1.187,0.998-1.33l8.97-1.912c0.674-0.143,1.326,0.217,1.45,0.808V119.977z
	"/>
<path style="fill:#ECF0F1;" d="M132.346,127.691c0.3,1.409-0.6,2.799-2.009,3.099s-2.794-0.596-3.099-2.009
	c-0.3-1.409,0.596-2.794,2.009-3.095c1.409-0.3,2.794,0.6,3.099,2.009V127.691z"/>
<path style="fill:#EC4B53;" d="M131.455,127.88c0.199,0.919-0.388,1.82-1.307,2.014c-0.919,0.194-1.82-0.388-2.014-1.307
	c-0.194-0.915,0.388-1.82,1.307-2.014C130.36,126.374,131.261,126.961,131.455,127.88z"/>
<path style="fill:#FFFFFF;" d="M130.448,128.097c0.125,0.587-0.323,1.182-0.998,1.33l-8.97,1.912
	c-0.674,0.143-1.326-0.217-1.45-0.804c-0.125-0.587,0.323-1.182,0.998-1.33l8.97-1.912c0.674-0.143,1.326,0.222,1.45,0.808V128.097z
	"/>
<path style="fill:#ECF0F1;" d="M134.078,135.815c0.3,1.409-0.596,2.794-2.009,3.095c-1.409,0.3-2.799-0.6-3.099-2.009
	c-0.3-1.409,0.6-2.799,2.009-3.095C132.388,133.506,133.773,134.406,134.078,135.815z"/>
<path style="fill:#EC4B53;" d="M133.187,136.004c0.194,0.919-0.388,1.82-1.307,2.014c-0.919,0.194-1.82-0.388-2.014-1.307
	c-0.199-0.919,0.388-1.82,1.307-2.014C132.092,134.503,132.993,135.085,133.187,136.004z"/>
<path style="fill:#FFFFFF;" d="M132.175,136.221c0.125,0.587-0.323,1.182-0.998,1.33l-8.97,1.912
	c-0.674,0.143-1.326-0.217-1.45-0.808c-0.125-0.587,0.323-1.182,0.998-1.326l8.97-1.912c0.674-0.143,1.326,0.217,1.45,0.808V136.221
	z"/>
<path style="fill:#ECF0F1;" d="M135.81,143.935c0.3,1.409-0.6,2.794-2.009,3.099c-1.409,0.3-2.794-0.6-3.099-2.009
	c-0.3-1.409,0.596-2.799,2.009-3.099C134.12,141.625,135.51,142.526,135.81,143.935z"/>
<path style="fill:#EC4B53;" d="M134.919,144.124c0.199,0.919-0.388,1.82-1.307,2.014c-0.919,0.199-1.82-0.388-2.014-1.307
	c-0.194-0.919,0.388-1.82,1.307-2.014C133.82,142.623,134.725,143.205,134.919,144.124z"/>
<path style="fill:#FFFFFF;" d="M133.912,144.341c0.125,0.587-0.323,1.182-0.998,1.326l-8.974,1.912
	c-0.67,0.143-1.326-0.217-1.45-0.808c-0.125-0.587,0.323-1.182,0.998-1.33l8.97-1.912c0.674-0.143,1.326,0.217,1.45,0.808
	L133.912,144.341z"/>
<path style="fill:#ECF0F1;" d="M137.542,152.055c0.3,1.409-0.596,2.799-2.009,3.099c-1.409,0.3-2.799-0.596-3.099-2.009
	c-0.3-1.409,0.6-2.794,2.009-3.095C135.852,149.745,137.238,150.646,137.542,152.055z"/>
<path style="fill:#EC4B53;" d="M136.651,152.249c0.199,0.919-0.388,1.82-1.307,2.014c-0.919,0.194-1.82-0.388-2.014-1.307
	c-0.199-0.915,0.388-1.82,1.307-2.014C135.552,150.743,136.457,151.329,136.651,152.249z"/>
<path style="fill:#FFFFFF;" d="M135.639,152.461c0.125,0.587-0.323,1.182-0.998,1.33l-8.97,1.912
	c-0.674,0.143-1.326-0.222-1.45-0.808c-0.125-0.587,0.323-1.182,0.998-1.33l8.97-1.912
	C134.863,151.51,135.515,151.874,135.639,152.461z"/>
<path style="fill:#ECF0F1;" d="M139.279,160.179c0.3,1.409-0.6,2.799-2.009,3.095c-1.409,0.3-2.794-0.6-3.099-2.009
	c-0.3-1.409,0.596-2.794,2.009-3.095C137.589,157.87,138.979,158.766,139.279,160.179z"/>
<path style="fill:#EC4B53;" d="M138.383,160.368c0.199,0.919-0.388,1.82-1.307,2.018c-0.919,0.194-1.82-0.388-2.014-1.307
	c-0.194-0.919,0.388-1.82,1.307-2.014c0.915-0.194,1.82,0.388,2.014,1.307V160.368z"/>
<path style="fill:#FFFFFF;" d="M137.376,160.585c0.125,0.587-0.323,1.182-0.998,1.326l-8.974,1.912
	c-0.67,0.143-1.326-0.217-1.45-0.808c-0.125-0.587,0.323-1.182,0.998-1.33l8.97-1.912c0.674-0.143,1.326,0.217,1.45,0.808
	L137.376,160.585z"/>
<path style="fill:#ECF0F1;" d="M141.006,168.299c0.305,1.409-0.596,2.794-2.005,3.095c-1.409,0.3-2.799-0.6-3.099-2.009
	c-0.3-1.409,0.6-2.799,2.009-3.099s2.794,0.596,3.095,2.009V168.299z"/>
<path style="fill:#EC4B53;" d="M140.115,168.493c0.199,0.915-0.388,1.82-1.307,2.014c-0.919,0.199-1.82-0.388-2.014-1.307
	c-0.199-0.919,0.388-1.82,1.307-2.014C139.016,166.992,139.921,167.574,140.115,168.493z"/>
<path style="fill:#FFFFFF;" d="M139.108,168.705c0.125,0.587-0.323,1.182-0.998,1.326l-8.97,1.912
	c-0.674,0.143-1.326-0.222-1.45-0.808c-0.125-0.591,0.323-1.187,0.998-1.33l8.97-1.912c0.674-0.143,1.326,0.222,1.45,0.808V168.705z
	"/>
<path style="fill:#ECF0F1;" d="M142.743,176.419c0.3,1.409-0.6,2.799-2.009,3.099c-1.409,0.3-2.794-0.6-3.099-2.009
	c-0.3-1.409,0.596-2.794,2.009-3.095C141.053,174.114,142.443,175.014,142.743,176.419z"/>
<path style="fill:#EC4B53;" d="M141.847,176.613c0.199,0.919-0.388,1.82-1.307,2.014c-0.915,0.194-1.82-0.388-2.014-1.307
	c-0.194-0.915,0.388-1.82,1.307-2.014C140.748,175.111,141.653,175.693,141.847,176.613z"/>
<path style="fill:#FFFFFF;" d="M140.84,176.83c0.125,0.587-0.323,1.182-0.998,1.33l-8.974,1.912c-0.67,0.143-1.326-0.222-1.45-0.808
	c-0.125-0.587,0.323-1.187,0.998-1.33l8.97-1.912c0.674-0.143,1.326,0.222,1.45,0.808H140.84z"/>
<path style="fill:#ECF0F1;" d="M144.471,184.543c0.305,1.409-0.596,2.794-2.005,3.095c-1.409,0.3-2.799-0.6-3.099-2.009
	s0.6-2.799,2.009-3.095C142.785,182.234,144.17,183.134,144.471,184.543z"/>
<path style="fill:#EC4B53;" d="M143.579,184.732c0.199,0.919-0.388,1.82-1.307,2.018c-0.919,0.194-1.82-0.393-2.014-1.307
	c-0.194-0.919,0.388-1.82,1.307-2.014c0.915-0.194,1.82,0.388,2.014,1.307V184.732z"/>
<path style="fill:#FFFFFF;" d="M142.572,184.949c0.125,0.587-0.323,1.187-0.998,1.33l-8.97,1.912
	c-0.674,0.143-1.326-0.217-1.45-0.808c-0.125-0.587,0.323-1.182,0.998-1.326l8.97-1.912c0.674-0.143,1.326,0.217,1.45,0.808V184.949
	z"/>
<path style="fill:#ECF0F1;" d="M146.207,192.667c0.3,1.409-0.6,2.794-2.009,3.095c-1.409,0.3-2.794-0.6-3.099-2.009
	c-0.3-1.409,0.596-2.799,2.009-3.095C144.517,190.358,145.902,191.254,146.207,192.667z"/>
<path style="fill:#EC4B53;" d="M145.311,192.857c0.199,0.919-0.388,1.82-1.307,2.014c-0.919,0.199-1.82-0.388-2.014-1.307
	c-0.194-0.919,0.388-1.82,1.307-2.014C144.212,191.356,145.117,191.938,145.311,192.857z"/>
<path style="fill:#FFFFFF;" d="M144.304,193.074c0.125,0.587-0.323,1.182-0.998,1.326l-8.974,1.917
	c-0.67,0.143-1.326-0.222-1.45-0.808c-0.125-0.587,0.323-1.182,0.998-1.33l8.97-1.912c0.674-0.143,1.326,0.217,1.45,0.808H144.304z"
	/>
<path style="fill:#ECF0F1;" d="M147.935,200.787c0.3,1.409-0.6,2.799-2.005,3.099c-1.409,0.3-2.799-0.6-3.099-2.009
	s0.6-2.799,2.009-3.095C146.249,198.482,147.634,199.378,147.935,200.787z"/>
<path style="fill:#EC4B53;" d="M147.043,200.977c0.199,0.915-0.388,1.82-1.307,2.014c-0.919,0.194-1.82-0.388-2.014-1.307
	c-0.194-0.915,0.388-1.82,1.307-2.014C145.944,199.471,146.849,200.057,147.043,200.977z"/>
<path style="fill:#FFFFFF;" d="M146.036,201.194c0.125,0.587-0.323,1.182-0.993,1.33l-8.974,1.912
	c-0.674,0.143-1.326-0.217-1.45-0.804c-0.125-0.591,0.323-1.182,0.998-1.33l8.97-1.912c0.674-0.143,1.326,0.222,1.45,0.808V201.194z
	"/>
<path style="fill:#ECF0F1;" d="M149.671,208.907c0.3,1.409-0.6,2.799-2.009,3.099c-1.409,0.3-2.794-0.6-3.099-2.009
	c-0.3-1.409,0.596-2.794,2.009-3.095c1.409-0.3,2.794,0.6,3.099,2.009V208.907z"/>
<path style="fill:#EC4B53;" d="M148.775,209.096c0.199,0.919-0.388,1.82-1.307,2.014c-0.919,0.194-1.82-0.388-2.014-1.307
	c-0.194-0.915,0.388-1.82,1.307-2.014C147.676,207.591,148.581,208.177,148.775,209.096z"/>
<path style="fill:#FFFFFF;" d="M147.764,209.318c0.125,0.587-0.323,1.182-0.993,1.326l-8.974,1.912
	c-0.67,0.143-1.326-0.217-1.45-0.804c-0.125-0.587,0.323-1.182,0.998-1.33l8.97-1.912
	C146.988,208.367,147.639,208.727,147.764,209.318z"/>
<path style="fill:#ECF0F1;" d="M151.399,217.031c0.3,1.409-0.6,2.794-2.005,3.095c-1.409,0.3-2.799-0.6-3.099-2.005
	c-0.3-1.409,0.6-2.799,2.009-3.099C149.713,214.722,151.103,215.623,151.399,217.031z"/>
<path style="fill:#EC4B53;" d="M150.507,217.221c0.194,0.915-0.388,1.82-1.307,2.014c-0.919,0.199-1.82-0.388-2.014-1.307
	c-0.194-0.919,0.388-1.82,1.307-2.014C149.408,215.72,150.313,216.306,150.507,217.221z"/>
<path style="fill:#FFFFFF;" d="M149.5,217.438c0.125,0.587-0.323,1.182-0.998,1.326l-8.97,1.912
	c-0.674,0.143-1.326-0.217-1.45-0.808c-0.125-0.587,0.323-1.187,0.998-1.33l8.97-1.912c0.67-0.143,1.326,0.217,1.45,0.808V217.438z"
	/>
<path style="fill:#ECF0F1;" d="M153.135,225.151c0.3,1.409-0.6,2.794-2.009,3.099c-1.409,0.3-2.799-0.6-3.099-2.009
	s0.596-2.794,2.009-3.099c1.409-0.3,2.794,0.596,3.095,2.009H153.135z"/>
<path style="fill:#EC4B53;" d="M152.239,225.345c0.199,0.919-0.388,1.82-1.307,2.014c-0.919,0.199-1.82-0.388-2.014-1.307
	c-0.194-0.915,0.388-1.82,1.307-2.014C151.14,223.839,152.045,224.426,152.239,225.345z"/>
<path style="fill:#FFFFFF;" d="M151.228,225.558c0.125,0.587-0.323,1.182-0.993,1.33l-8.97,1.912
	c-0.674,0.143-1.326-0.222-1.45-0.808c-0.129-0.587,0.319-1.182,0.993-1.33l8.97-1.912
	C150.447,224.606,151.103,224.971,151.228,225.558z"/>
<path style="fill:#ECF0F1;" d="M107.807,382.051c0,0-7.422,0.462-7.422,4.263c0,3.806,0,11.224,0,12.614s1.575,1.298,2.503,1.298
	s4.914,0,4.914,0s3.991,0,4.914,0c0.928,0,2.508,0.092,2.508-1.298s0-8.813,0-12.614s-7.422-4.263-7.422-4.263H107.807z"/>
<path style="fill:#FFFFFF;" d="M113.095,401.561c0-4.083-1.113-6.679-5.196-6.679h-0.185c-4.083,0-5.196,2.596-5.196,6.679
	l-2.226,24.484c0,4.083,3.339,7.422,7.422,7.422h0.185c4.083,0,7.422-3.339,7.422-7.422L113.095,401.561z M107.807,396.799
	L107.807,396.799c1.612,0,2.924,1.312,2.924,2.919c0,1.617-1.312,2.924-2.924,2.924s-2.924-1.307-2.924-2.924
	C104.883,398.106,106.195,396.799,107.807,396.799z M107.807,430.779L107.807,430.779c-2.924,0-5.288-2.369-5.288-5.288
	s2.365-5.288,5.288-5.288c2.919,0,5.288,2.365,5.288,5.288C113.095,428.409,110.73,430.779,107.807,430.779z"/>
<path style="fill:#3F3A3B;" d="M109.71,399.819c0,0.841-0.854,1.524-1.903,1.524s-1.903-0.684-1.903-1.524v-17.727
	c0-0.836,0.854-1.524,1.903-1.524c1.044,0,1.903,0.688,1.903,1.524V399.819z"/>
<path style="fill:#FBB429;" d="M309.328,160.946l11.385,4.466l38.548-98.292l-11.385-4.462l-38.548,98.292V160.946z"/>
<g>
	<path style="fill:#FF5B61;" d="M306.816,184.118l13.898-18.711l-11.385-4.462L306.816,184.118z"/>
	<path style="fill:#FF5B61;" d="M353.973,53.98l6.711,2.633c1.843,0.725,2.707,2.965,1.921,4.974l-17.921,45.693l-13.422-5.265
		l17.921-45.694C349.974,54.308,352.13,53.254,353.973,53.98z"/>
</g>
<path style="fill:#EC4B53;" d="M360.837,56.672c1.737,0.785,2.531,2.956,1.769,4.91l-17.921,45.694l-3.201-1.256L360.837,56.672z
	 M334.611,103.327L334.611,103.327l19.357-49.352c-1.843-0.721-3.995,0.333-4.785,2.346l-17.921,45.694l3.353,1.316L334.611,103.327
	z"/>
<path style="fill:#666666;" d="M305.989,185.536l0.471,0.185l5.566-8.619l-4.245-1.667l-1.792,10.097V185.536z"/>
<path style="fill:#0E7886;" d="M347.53,60.547l16.36,6.549l1.03,0.411l-0.439,1.118l-13.348,34.036l-0.134,0.351l-0.305,0.222
	l-2.508,1.815c-1.238,0.813-2.559-0.702-1.187-1.954l2.199-1.593l12.771-32.567l-15.325-6.138l0.891-2.249H347.53z"/>
<path style="fill:#FF5B61;" d="M304.483,177.619c-0.651,2.619-3.302,4.212-5.921,3.556l-1.492-0.369
	c-2.619-0.651-4.208-3.302-3.556-5.917l1.801-7.228c0.651-2.619,3.302-4.208,5.917-3.556l1.492,0.369
	c2.619,0.651,4.208,3.302,3.556,5.917L304.483,177.619z"/>
<g>
	<path style="fill:#FBAB08;" d="M296.502,162.886l10.97,2.73l-1.52,6.111l-10.97-2.73l1.52-6.106V162.886z"/>
	<path style="fill:#FBAB08;" d="M298.271,155.791l10.97,2.73l-1.145,4.6l-10.965-2.73l1.145-4.6H298.271z"/>
</g>
<path style="fill:#FBB429;" d="M337.761,20.554c-0.005,0.009-12.48,25.639-12.286,25.953l5.293,2.125l5.672,0.605
	c0.319-0.189,1.316-28.673,1.316-28.683H337.761z"/>
<path style="fill:#666666;" d="M334.935,31.92c0.804,0.199,1.603,0.337,2.393,0.425c0.245-6.226,0.439-11.787,0.439-11.792
	c0,0.005-2.439,5.011-5.141,10.623c0.739,0.291,1.506,0.545,2.309,0.748V31.92z"/>
<path style="fill:#FBB429;" d="M303.028,169.583l1.192-4.776l0.619-2.494l1.145-4.6l-4.457-1.109l-1.145,4.6l-0.619,2.494
	l-1.192,4.776l-0.328,1.335l4.457,1.109L303.028,169.583z"/>
<path style="fill:#FFFFFF;" d="M296.502,162.886l10.97,2.73l0.619-2.494l-10.965-2.73L296.502,162.886z"/>
<path style="fill:#EC4B53;" d="M328.09,43.814c-1.007-0.249-2.332,1.57-2.591,2.61c-0.009,0.028-0.009,0.055-0.014,0.088h-0.009
	l-27.209,109.285l3.63,0.905l27.32-109.733c0.12-1.122-0.222-2.924-1.127-3.15V43.814z"/>
<path style="fill:#FF5B61;" d="M331.748,44.724c-1.012-0.254-2.332,1.57-2.591,2.61c-0.009,0.028-0.005,0.055-0.014,0.088
	l-0.018-0.005c0.009-0.028,0.023-0.051,0.028-0.079c0.028-0.111,0.046-0.24,0.06-0.374l-27.32,109.733l3.672,0.915l27.288-109.613
	c0.162-1.109-0.176-3.039-1.113-3.27L331.748,44.724z"/>
<path style="fill:#EC4B53;" d="M335.401,45.633c-1.012-0.249-2.332,1.575-2.591,2.614c-0.009,0.028-0.009,0.055-0.014,0.083
	l-0.018-0.005c0.009-0.028,0.023-0.051,0.028-0.079c0.018-0.079,0.032-0.162,0.046-0.254l-27.288,109.613l3.667,0.915
	l27.205-109.285l-0.009-0.005c0.009-0.028,0.023-0.051,0.028-0.083c0.259-1.039-0.055-3.27-1.062-3.524L335.401,45.633z"/>
<path style="fill:#20D0C2;" d="M357.996,172.913c-20.124-20.35-52.779-31.297-97.133-32.59c-0.217-0.079-0.448-0.129-0.693-0.129
	c-1.404,0-2.794,0.014-4.175,0.028c-1.381-0.018-2.767-0.028-4.171-0.028c-0.245,0-0.476,0.051-0.693,0.129
	c-44.354,1.289-77.004,12.24-97.133,32.59c-19.547,19.764-19.542,40.936-19.533,41.828c0.014,1.113,0.919,2.005,2.028,2.005
	l-1.547,148.641h240.527V216.745c0.009,0,0.014,0,0.023,0c1.109,0,2.014-0.891,2.028-2.009c0.009-0.891,0.018-22.064-19.533-41.828
	L357.996,172.913z"/>
<path style="fill:#15BDB1;" d="M135.616,301.546l-0.665,63.841h240.527v-65.356C362.781,279.459,329.355,256,256,256l0,0
	C180.834,256,147.593,280.632,135.616,301.546z"/>
<path style="fill:#FBB429;" d="M382.037,466.556c0-12.983,0-119.294,0-138.766c0-19.477-25.574-61.674-126.042-61.674l0,0
	c-100.467,0-126.037,42.197-126.037,61.674s0,125.783,0,138.766s-2.434,35.708,19.487,35.708c21.916,0,106.537,0,106.555,0l0,0
	c0.018,0,84.639,0,106.555,0C384.476,502.264,382.037,479.539,382.037,466.556z"/>
<g>
	<path style="fill:#FFFFFF;" d="M364.883,324.709c-0.125-0.448-3.192-11.122-18.452-21.648c-19.93-13.745-50.358-20.72-90.436-20.72
		s-70.506,6.97-90.436,20.72c-15.26,10.526-18.323,21.2-18.452,21.648c-0.351,1.289,0.406,2.619,1.695,2.979
		c0.217,0.06,0.439,0.092,0.656,0.092c1.058,0,2.037-0.702,2.342-1.769c0.028-0.097,2.919-9.723,16.988-19.256
		c13.15-8.914,38.959-19.542,87.207-19.542s74.057,10.623,87.207,19.542c14.004,9.492,16.932,19.071,16.983,19.256
		c0.3,1.076,1.275,1.783,2.342,1.783c0.212,0,0.43-0.028,0.642-0.088c1.298-0.356,2.06-1.695,1.709-2.993L364.883,324.709z"/>
	<path style="fill:#FFFFFF;" d="M361.779,319.296c0,0-7.422,0.462-7.422,4.268c0,3.801,0,11.224,0,12.614s1.575,1.298,2.503,1.298
		s4.914,0,4.914,0s3.991,0,4.914,0c0.928,0,2.503,0.092,2.503-1.298s0-8.813,0-12.614c0-3.801-7.422-4.268-7.422-4.268H361.779z"/>
	<path style="fill:#FFFFFF;" d="M367.068,338.801c0-4.083-1.113-6.679-5.196-6.679h-0.185c-4.078,0-5.196,2.596-5.196,6.679
		l-2.226,24.489c0,4.078,3.339,7.418,7.422,7.418h0.185c4.083,0,7.422-3.339,7.422-7.418L367.068,338.801z M361.779,334.039
		L361.779,334.039c1.612,0,2.924,1.307,2.924,2.919c0,1.612-1.312,2.924-2.924,2.924c-1.612,0-2.924-1.307-2.924-2.924
		C358.855,335.346,360.167,334.039,361.779,334.039z M361.779,368.014L361.779,368.014c-2.919,0-5.288-2.369-5.288-5.289
		c0-2.919,2.365-5.288,5.288-5.288c2.919,0,5.288,2.365,5.288,5.288C367.068,365.645,364.703,368.014,361.779,368.014z"/>
</g>
<g>
	<path style="fill:#ECF0F1;" d="M363.682,337.059c0,0.836-0.854,1.524-1.903,1.524c-1.044,0-1.903-0.688-1.903-1.524v-17.727
		c0-0.841,0.859-1.524,1.903-1.524c1.048,0,1.903,0.684,1.903,1.524V337.059z"/>
	<path style="fill:#ECF0F1;" d="M357.996,172.913c-20.124-20.35-52.779-31.297-97.133-32.59c-0.217-0.079-0.448-0.129-0.693-0.129
		c-1.404,0-2.794,0.014-4.175,0.028c-1.381-0.018-2.767-0.028-4.171-0.028c-0.245,0-0.476,0.051-0.693,0.129
		c-44.354,1.289-77.004,12.24-97.133,32.59c-19.547,19.764-19.542,40.936-19.533,41.828c0.014,1.113,0.919,2.005,2.028,2.005
		c0.009,0,0.014,0,0.018,0c1.118-0.009,2.018-0.924,2.009-2.046c-0.005-0.203,0.06-20.498,18.452-39.024
		c20.087-20.239,53.388-30.789,99.022-31.389c45.633,0.6,78.939,11.154,99.022,31.389c18.327,18.466,18.452,38.682,18.452,39.024
		c-0.009,1.118,0.887,2.037,2.009,2.051c0.009,0,0.014,0,0.023,0c1.108,0,2.014-0.891,2.028-2.009
		C377.538,213.849,377.548,192.677,357.996,172.913z"/>
</g>
<g>
	<path style="fill:#FFFFFF;" d="M372.91,203.706c0,0-7.418,0.462-7.418,4.263c0,3.806,0,11.224,0,12.614
		c0,1.39,1.575,1.298,2.503,1.298s4.914,0,4.914,0s3.991,0,4.914,0c0.928,0,2.503,0.092,2.503-1.298c0-1.39,0-8.813,0-12.614
		c0-3.801-7.422-4.263-7.422-4.263H372.91z"/>
	<path style="fill:#FFFFFF;" d="M378.194,223.216c0-4.078-1.113-6.679-5.191-6.679h-0.189c-4.078,0-5.191,2.596-5.191,6.679
		l-2.226,24.484c0,4.083,3.339,7.418,7.422,7.418h0.189c4.083,0,7.418-3.335,7.418-7.418l-2.226-24.484H378.194z M372.906,218.454
		L372.906,218.454c1.617,0,2.924,1.307,2.924,2.919c0,1.617-1.307,2.924-2.924,2.924c-1.612,0-2.919-1.307-2.919-2.924
		C369.987,219.761,371.294,218.454,372.906,218.454z M372.906,252.43L372.906,252.43c-2.919,0-5.284-2.365-5.284-5.288
		c0-2.919,2.365-5.288,5.284-5.288s5.289,2.369,5.289,5.288C378.194,250.06,375.829,252.43,372.906,252.43z"/>
</g>
<path style="fill:#ECF0F1;" d="M374.813,221.475c0,0.841-0.854,1.524-1.903,1.524c-1.044,0-1.898-0.688-1.898-1.524v-17.727
	c0-0.836,0.854-1.524,1.898-1.524c1.048,0,1.903,0.688,1.903,1.524V221.475z"/>
<path style="fill:#F5A209;" d="M131.667,489.881c2.222,7.011,7.122,12.383,17.778,12.383c21.921,0,106.541,0,106.555,0l0,0
	c0.018,0,84.639,0,106.555,0c10.655,0,15.556-5.372,17.778-12.383h-248.67H131.667z"/>
<g>
</g>
<g>
</g>
<g>
</g>
<g>
</g>
<g>
</g>
<g>
</g>
<g>
</g>
<g>
</g>
<g>
</g>
<g>
</g>
<g>
</g>
<g>
</g>
<g>
</g>
<g>
</g>
<g>
</g>
</svg>
