<svg xmlns="http://www.w3.org/2000/svg" viewBox="0 0 512 512"><path d="M256 0c141.385 0 256 114.615 256 256S397.385 512 256 512 0 397.385 0 256 114.615 0 256 0z" fill="#1a91a1"/><path d="M122.725 312.21v195.448H86.209c-12.983 0-11.769-7.178-11.769-52.206s5.275-143.242 48.285-143.242z" fill="#666"/><path d="M111.091 388.041c0 2.434-1.095 4.425-2.434 4.425s-2.434-1.991-2.434-4.425v-69.924c0-2.434 1.095-4.425 2.434-4.425s2.434 1.991 2.434 4.425v69.924z" fill="#807d7d"/><path d="M389.275 312.21v195.448h36.516c12.983 0 11.769-7.178 11.769-52.206s-5.275-143.242-48.285-143.242z" fill="#666"/><path d="M400.909 388.041c0 2.434 1.095 4.425 2.434 4.425s2.434-1.991 2.434-4.425v-69.924c0-2.434-1.095-4.425-2.434-4.425s-2.434 1.991-2.434 4.425v69.924z" fill="#807d7d"/><path d="M403.339 382.051s7.422.462 7.422 4.263v12.614c0 1.39-1.575 1.298-2.503 1.298h-9.828c-.928 0-2.508.092-2.508-1.298v-12.614c0-3.801 7.422-4.263 7.422-4.263h-.005z" fill="#ecf0f1"/><g fill="#fff"><path d="M395.829 426.045c0 4.083 3.339 7.422 7.418 7.422h.185c4.083 0 7.422-3.339 7.422-7.422l-2.226-24.484c0-4.083-1.113-6.679-5.196-6.679h-.185c-4.078 0-5.191 2.596-5.191 6.679l-2.227 24.484zm10.433-26.327a2.92 2.92 0 0 1-2.919 2.924 2.924 2.924 0 0 1-2.924-2.924 2.923 2.923 0 0 1 2.924-2.919 2.919 2.919 0 0 1 2.919 2.919zm-8.207 25.768c0-2.919 2.369-5.289 5.289-5.289s5.288 2.365 5.288 5.289a5.287 5.287 0 0 1-5.288 5.288 5.29 5.29 0 0 1-5.289-5.288z"/><path d="M401.436 399.819c0 .841.854 1.524 1.903 1.524 1.044 0 1.903-.684 1.903-1.524v-17.727c0-.836-.854-1.524-1.903-1.524s-1.903.688-1.903 1.524v17.727z"/></g><path d="M238.236 89.119h61.134c3.944 0 7.173 3.229 7.173 7.173v27.292h-10.448v-15.842a2.413 2.413 0 0 0-2.406-2.406h-49.763a2.41 2.41 0 0 0-2.406 2.406v15.842h-10.448V96.292c0-3.944 3.229-7.173 7.173-7.173h-.009z" fill="#666"/><path d="M247.363 85.318h40.377c3.478 0 6.318 2.841 6.318 6.318v9.639c0 3.478-2.845 6.318-6.318 6.318h-40.377c-3.478 0-6.318-2.841-6.318-6.318v-9.639c-.001-3.478 2.845-6.318 6.318-6.318z" fill="#fbb429"/><path d="M293.551 104.269c-.725 1.977-2.152 3.326-3.778 3.326h-44.437c-1.626 0-3.048-1.349-3.774-3.326h51.989z" fill="#f5a209"/><path d="M256 114.361c-124.744 0-138.997 55.993-138.997 116.047v257.247c0 18.664 3.247 24.345 22.724 24.345h232.546c19.477 0 22.724-5.681 22.724-24.346V230.407c0-60.053-14.258-116.046-138.997-116.046z" fill="#15bdb1"/><path d="M415.754 30.983l-88.916 252.753-27.944-9.833L387.81 21.154l27.944 9.829z" fill="#fbb429"/><path d="M326.649 280.415l-9.824-3.455.388-1.109 9.824 3.455-.388 1.109zm82.579-234.74l-9.829-3.455.388-1.109 9.824 3.455-.388 1.109h.005zm1.034-2.933l.388-1.109-5.935-2.088-.388 1.113 5.935 2.088v-.004zm1.03-2.933l-5.93-2.088.388-1.109 5.931 2.088-.389 1.109zm1.035-2.933l.388-1.109-5.931-2.088-.388 1.113 5.93 2.088v-.004zm1.035-2.933l-5.93-2.088.383-1.109 5.93 2.088-.383 1.113v-.004zm-9.289 26.41l-9.824-3.459.388-1.109 9.824 3.459-.383 1.109h-.005zm1.035-2.937l.388-1.109-5.935-2.088-.388 1.113 5.935 2.088v-.004zm1.03-2.933l-5.935-2.088.383-1.109 5.935 2.083-.388 1.109.005.005zm1.03-2.933l.388-1.109-5.931-2.088-.383 1.109 5.931 2.088h-.005zm1.034-2.933l.388-1.113-5.935-2.083-.388 1.109 5.935 2.087zm-9.293 26.41l-9.824-3.455.383-1.109 9.824 3.455-.388 1.109h.005zm1.035-2.933l.388-1.113-5.931-2.088-.388 1.109 5.931 2.088v.004zm1.03-2.937l-5.93-2.083.388-1.109 5.931 2.083-.389 1.109zm1.035-2.928l.393-1.109-5.931-2.088-.393 1.109 5.931 2.088zm1.03-2.938l.388-1.109-5.931-2.088-.388 1.109 5.931 2.088zm-9.289 26.41l-9.824-3.459.388-1.109 9.824 3.459-.383 1.113-.005-.004zm1.035-2.937l.383-1.113-5.935-2.088-.388 1.109 5.935 2.088.005.004zm1.03-2.933l-5.935-2.088.388-1.108 5.935 2.088-.388 1.108zm1.03-2.933l.383-1.109-5.931-2.088-.383 1.109 5.931 2.088zm1.034-2.933l.388-1.109-5.935-2.088-.388 1.109 5.935 2.088zm-9.293 26.41l-9.824-3.455.388-1.113 9.824 3.455-.388 1.109v.004zm1.035-2.933l.388-1.113-5.935-2.083-.388 1.109 5.935 2.087zm1.03-2.933l-5.931-2.088.388-1.109 5.935 2.088-.388 1.109h-.004zm1.035-2.933l.388-1.113-5.935-2.088-.383 1.109 5.931 2.088v.004zm1.034-2.937l.383-1.109-5.931-2.088-.388 1.109 5.936 2.088zm-9.288 26.41l-9.824-3.459.388-1.109 9.824 3.459-.383 1.109h-.005zm1.03-2.933l.388-1.113-5.931-2.088-.388 1.109 5.931 2.088v.004zm1.034-2.933l-5.931-2.088.388-1.109 5.935 2.088-.388 1.109h-.004zm1.03-2.933l.393-1.109-5.935-2.088-.388 1.109 5.93 2.088zm1.035-2.937l.383-1.109-5.931-2.083-.383 1.109 5.931 2.088v-.005zm-9.293 26.41l-9.824-3.459.393-1.109 9.824 3.459-.388 1.113-.005-.004zm1.035-2.938l.388-1.109-5.935-2.088-.388 1.109 5.935 2.088zm1.03-2.933l-5.931-2.088.393-1.109 5.935 2.088-.393 1.109h-.004zm1.03-2.933l.388-1.109-5.93-2.088-.388 1.109 5.93 2.088zm1.034-2.937l.383-1.109-5.931-2.083-.388 1.109 5.936 2.083zm-9.288 26.41l-9.824-3.459.383-1.113 9.824 3.459-.388 1.113h.005zm1.03-2.933l.388-1.109-5.93-2.088-.388 1.109 5.93 2.088zm1.035-2.938l-5.931-2.083.388-1.113 5.935 2.088-.388 1.109h-.004zm1.03-2.932l.388-1.113-5.931-2.088-.383 1.109 5.931 2.088-.005.004zm1.034-2.933l.383-1.109-5.93-2.088-.383 1.113 5.93 2.084zm-9.288 26.41l-9.824-3.459.388-1.109 9.824 3.455-.383 1.113h-.005zm1.034-2.933l.388-1.109-5.935-2.088-.388 1.109 5.935 2.088zm1.03-2.933l-5.93-2.088.393-1.113 5.931 2.088-.394 1.113zm1.035-2.938l.388-1.109-5.935-2.083-.383 1.109 5.93 2.088v-.005zm1.035-2.933l.383-1.109-5.931-2.088-.388 1.113 5.931 2.083h.005zm-9.289 26.411l-9.824-3.459.388-1.108 9.824 3.455-.388 1.112zm1.03-2.933l.388-1.109-5.935-2.088-.388 1.109 5.935 2.088zm1.035-2.933l-5.93-2.088.383-1.113 5.935 2.088-.388 1.109v.004zm1.034-2.933l.388-1.109-5.93-2.083-.383 1.109 5.93 2.083h-.005zm1.035-2.933l.383-1.109-5.931-2.088-.388 1.113 5.936 2.084zm-9.293 26.41l-9.824-3.455.388-1.109 9.824 3.455-.388 1.113v-.004zm1.035-2.933l.388-1.109-5.935-2.088-.388 1.113 5.935 2.084zm1.03-2.933l-5.931-2.088.388-1.113 5.931 2.088-.388 1.109v.004zm1.034-2.937l.388-1.109-5.935-2.088-.383 1.109 5.93 2.088zm1.03-2.933l.388-1.109-5.93-2.088-.388 1.109 5.93 2.088zm-9.288 26.405l-9.824-3.459.388-1.109 9.824 3.459-.388 1.109zm1.034-2.933l.388-1.109-5.935-2.088-.388 1.113 5.935 2.088v-.004zm1.03-2.933l-5.935-2.088.383-1.109 5.935 2.088-.388 1.113.005-.004zm1.03-2.933l.393-1.109-5.935-2.088-.388 1.109 5.93 2.088zm1.035-2.937l.388-1.109-5.935-2.088-.388 1.113 5.935 2.084zm-9.293 26.41l-9.824-3.455.388-1.109 9.824 3.455-.388 1.109zm1.035-2.933l.388-1.109-5.931-2.088-.388 1.109 5.931 2.088zm1.03-2.933l-5.931-2.088.388-1.109 5.935 2.088-.388 1.113-.004-.004zm1.034-2.933l.388-1.109-5.935-2.088-.388 1.109 5.935 2.088zm1.035-2.933l.383-1.113-5.931-2.088-.383 1.113 5.931 2.088zm-9.288 26.406l-9.824-3.459.388-1.109 9.824 3.459-.383 1.109h-.005zm1.03-2.938l.388-1.109-5.931-2.088-.388 1.109 5.931 2.083v.005zm1.034-2.933l-5.931-2.088.388-1.109 5.935 2.088-.388 1.109h-.004zm1.03-2.932l.383-1.109-5.93-2.088-.388 1.109 5.931 2.088h.004zm1.035-2.933l.383-1.109-5.93-2.088-.388 1.113 5.935 2.088v-.004zm-9.293 26.41l-9.824-3.459.388-1.109 9.824 3.459-.388 1.109zm1.03-2.933l.393-1.113-5.931-2.088-.393 1.113 5.931 2.088zm1.034-2.938l-5.931-2.088.393-1.113 5.935 2.088-.393 1.113h-.004zm1.035-2.933l.393-1.109-5.93-2.088-.393 1.109 5.93 2.088zm1.035-2.933l.388-1.113-5.931-2.088-.388 1.113 5.931 2.088zm-9.289 26.406l-9.829-3.455.388-1.108 9.824 3.455-.383 1.108zm1.03-2.933l.388-1.108-5.935-2.088-.388 1.108 5.93 2.088h.005zm1.035-2.933l-5.931-2.088.388-1.108 5.931 2.083-.388 1.108v.005zm1.034-2.933l.388-1.109-5.931-2.088-.383 1.113 5.931 2.083h-.005zm-7.228 20.544l.393-1.113-5.931-2.088-.393 1.113 5.931 2.088zm1.035-2.932l-5.935-2.088.383-1.109 5.935 2.088-.388 1.108h.005zm1.034-2.933l.388-1.108-5.935-2.088-.383 1.109 5.93 2.087zm1.03-2.933l.388-1.113-5.931-2.088-.388 1.109 5.931 2.088v.004zm5.159-14.67l.393-1.109-5.935-2.088-.393 1.113 5.935 2.088v-.004zm-62.644-45.628l-124.753 26.604-34.23-160.502 124.753-26.604 34.23 160.502z" fill="#fff"/><path d="M270.055 207.558l-124.753 26.604-34.23-160.502 124.753-26.609 34.23 160.502v.005z" fill="#ff5b61"/><path d="M121.954 78.958a2.61 2.61 0 1 1-5.11 1.084 2.61 2.61 0 0 1 5.114-1.08l-.004-.004z" fill="#ecf0f1"/><path d="M121.063 79.152a1.698 1.698 0 1 1-2.014-1.307 1.692 1.692 0 0 1 2.014 1.307z" fill="#ec4b53"/><path d="M120.051 79.364c.125.587-.323 1.187-.998 1.33l-8.97 1.912c-.674.143-1.326-.217-1.45-.804-.125-.587.323-1.182.998-1.33l8.97-1.912c.674-.143 1.326.217 1.45.808v-.004z" fill="#fff"/><path d="M123.686 87.082a2.61 2.61 0 0 1-2.009 3.095c-1.409.3-2.794-.6-3.099-2.005-.3-1.409.6-2.799 2.009-3.099a2.617 2.617 0 0 1 3.099 2.009z" fill="#ecf0f1"/><path d="M122.795 87.272a1.696 1.696 0 0 1-1.307 2.014 1.694 1.694 0 0 1-2.014-1.307 1.698 1.698 0 0 1 3.321-.707z" fill="#ec4b53"/><path d="M121.783 87.489c.125.587-.323 1.182-.998 1.326l-8.97 1.912c-.674.143-1.326-.217-1.45-.808-.125-.587.323-1.182.998-1.326l8.97-1.912c.674-.144 1.325.217 1.45.808z" fill="#fff"/><path d="M125.418 95.202c.3 1.409-.6 2.794-2.009 3.099a2.61 2.61 0 1 1 2.013-3.099h-.004z" fill="#ecf0f1"/><path d="M124.527 95.396a1.692 1.692 0 0 1-1.307 2.014 1.694 1.694 0 0 1-2.014-1.307 1.696 1.696 0 0 1 1.307-2.014 1.696 1.696 0 0 1 2.014 1.307z" fill="#ec4b53"/><path d="M123.515 95.609c.125.587-.323 1.182-.998 1.326l-8.97 1.912c-.674.143-1.326-.217-1.45-.808-.125-.587.323-1.187.998-1.33l8.97-1.912c.674-.143 1.326.217 1.45.808v.004z" fill="#fff"/><path d="M127.15 103.327a2.61 2.61 0 1 1-5.106 1.091 2.61 2.61 0 0 1 5.106-1.091z" fill="#ecf0f1"/><path d="M126.259 103.516a1.698 1.698 0 1 1-3.321.707 1.698 1.698 0 0 1 3.321-.707z" fill="#ec4b53"/><path d="M125.247 103.733c.125.587-.323 1.187-.998 1.33l-8.97 1.912c-.674.143-1.326-.222-1.45-.808-.125-.587.323-1.182.998-1.326l8.97-1.917c.674-.142 1.326.222 1.45.809z" fill="#fff"/><path d="M128.882 111.446a2.61 2.61 0 0 1-5.108 1.086 2.607 2.607 0 0 1 2.009-3.095 2.617 2.617 0 0 1 3.099 2.009z" fill="#ecf0f1"/><path d="M127.991 111.636a1.692 1.692 0 0 1-1.307 2.014 1.698 1.698 0 0 1-2.014-1.307 1.698 1.698 0 1 1 3.321-.711v.004z" fill="#ec4b53"/><path d="M126.979 111.853c.125.587-.323 1.182-.998 1.326l-8.97 1.912c-.674.143-1.326-.217-1.45-.804-.125-.587.323-1.182.998-1.326l8.97-1.912c.674-.143 1.326.217 1.45.808v-.004z" fill="#fff"/><path d="M130.614 119.571c.3 1.409-.6 2.794-2.009 3.099-1.409.3-2.799-.6-3.099-2.009-.3-1.409.6-2.794 2.009-3.099a2.615 2.615 0 0 1 3.099 2.009z" fill="#ecf0f1"/><path d="M129.723 119.76a1.698 1.698 0 1 1-3.321.707 1.692 1.692 0 0 1 1.307-2.014 1.698 1.698 0 0 1 2.014 1.307z" fill="#ec4b53"/><path d="M128.711 119.977c.125.587-.323 1.182-.998 1.326l-8.97 1.912c-.674.143-1.326-.217-1.45-.808-.125-.591.323-1.187.998-1.33l8.97-1.912c.674-.143 1.326.217 1.45.808v.004z" fill="#fff"/><path d="M132.346 127.691c.3 1.409-.6 2.799-2.009 3.099s-2.794-.596-3.099-2.009a2.607 2.607 0 0 1 2.009-3.095c1.409-.3 2.794.6 3.099 2.009v-.004z" fill="#ecf0f1"/><path d="M131.455 127.88a1.692 1.692 0 0 1-1.307 2.014 1.698 1.698 0 1 1-.707-3.321 1.692 1.692 0 0 1 2.014 1.307z" fill="#ec4b53"/><path d="M130.448 128.097c.125.587-.323 1.182-.998 1.33l-8.97 1.912c-.674.143-1.326-.217-1.45-.804-.125-.587.323-1.182.998-1.33l8.97-1.912c.674-.143 1.326.222 1.45.808v-.004z" fill="#fff"/><path d="M134.078 135.815a2.607 2.607 0 0 1-2.009 3.095c-1.409.3-2.799-.6-3.099-2.009-.3-1.409.6-2.799 2.009-3.095 1.409-.3 2.794.6 3.099 2.009z" fill="#ecf0f1"/><path d="M133.187 136.004a1.696 1.696 0 0 1-1.307 2.014 1.696 1.696 0 0 1-2.014-1.307 1.692 1.692 0 0 1 1.307-2.014 1.696 1.696 0 0 1 2.014 1.307z" fill="#ec4b53"/><path d="M132.175 136.221c.125.587-.323 1.182-.998 1.33l-8.97 1.912c-.674.143-1.326-.217-1.45-.808-.125-.587.323-1.182.998-1.326l8.97-1.912c.674-.143 1.326.217 1.45.808v-.004z" fill="#fff"/><path d="M135.81 143.935c.3 1.409-.6 2.794-2.009 3.099a2.61 2.61 0 1 1 2.009-3.099z" fill="#ecf0f1"/><path d="M134.919 144.124a1.692 1.692 0 0 1-1.307 2.014 1.692 1.692 0 0 1-2.014-1.307 1.698 1.698 0 1 1 3.321-.707z" fill="#ec4b53"/><path d="M133.912 144.341c.125.587-.323 1.182-.998 1.326l-8.974 1.912c-.67.143-1.326-.217-1.45-.808-.125-.587.323-1.182.998-1.33l8.97-1.912c.674-.143 1.326.217 1.45.808l.004.004z" fill="#fff"/><path d="M137.542 152.055a2.61 2.61 0 1 1-5.11 1.092 2.61 2.61 0 0 1 5.11-1.092z" fill="#ecf0f1"/><path d="M136.651 152.249a1.692 1.692 0 0 1-1.307 2.014 1.696 1.696 0 0 1-2.014-1.307 1.694 1.694 0 0 1 1.307-2.014 1.693 1.693 0 0 1 2.014 1.307z" fill="#ec4b53"/><path d="M135.639 152.461c.125.587-.323 1.182-.998 1.33l-8.97 1.912c-.674.143-1.326-.222-1.45-.808-.125-.587.323-1.182.998-1.33l8.97-1.912c.674-.143 1.326.221 1.45.808z" fill="#fff"/><path d="M139.279 160.179c.3 1.409-.6 2.799-2.009 3.095-1.409.3-2.794-.6-3.099-2.009a2.61 2.61 0 1 1 5.108-1.086z" fill="#ecf0f1"/><path d="M138.383 160.368a1.698 1.698 0 1 1-2.014-1.303 1.698 1.698 0 0 1 2.014 1.307v-.004z" fill="#ec4b53"/><path d="M137.376 160.585c.125.587-.323 1.182-.998 1.326l-8.974 1.912c-.67.143-1.326-.217-1.45-.808-.125-.587.323-1.182.998-1.33l8.97-1.912c.674-.143 1.326.217 1.45.808l.004.004z" fill="#fff"/><path d="M141.006 168.299a2.604 2.604 0 0 1-2.005 3.095c-1.409.3-2.799-.6-3.099-2.009-.3-1.409.6-2.799 2.009-3.099s2.794.596 3.095 2.009v.004z" fill="#ecf0f1"/><path d="M140.115 168.493a1.694 1.694 0 0 1-1.307 2.014 1.692 1.692 0 0 1-2.014-1.307 1.692 1.692 0 0 1 1.307-2.014 1.698 1.698 0 0 1 2.014 1.307z" fill="#ec4b53"/><path d="M139.108 168.705c.125.587-.323 1.182-.998 1.326l-8.97 1.912c-.674.143-1.326-.222-1.45-.808-.125-.591.323-1.187.998-1.33l8.97-1.912c.674-.143 1.326.222 1.45.808v.004z" fill="#fff"/><path d="M142.743 176.419c.3 1.409-.6 2.799-2.009 3.099-1.409.3-2.794-.6-3.099-2.009a2.607 2.607 0 0 1 2.009-3.095c1.409-.3 2.799.6 3.099 2.005z" fill="#ecf0f1"/><path d="M141.847 176.613a1.692 1.692 0 0 1-1.307 2.014 1.698 1.698 0 1 1 1.307-2.014z" fill="#ec4b53"/><path d="M140.84 176.83c.125.587-.323 1.182-.998 1.33l-8.974 1.912c-.67.143-1.326-.222-1.45-.808-.125-.587.323-1.187.998-1.33l8.97-1.912c.674-.143 1.326.222 1.45.808h.004z" fill="#fff"/><path d="M144.471 184.543a2.604 2.604 0 0 1-2.005 3.095c-1.409.3-2.799-.6-3.099-2.009s.6-2.799 2.009-3.095a2.61 2.61 0 0 1 3.095 2.009z" fill="#ecf0f1"/><path d="M143.579 184.732a1.698 1.698 0 1 1-2.014-1.303 1.698 1.698 0 0 1 2.014 1.307v-.004z" fill="#ec4b53"/><path d="M142.572 184.949c.125.587-.323 1.187-.998 1.33l-8.97 1.912c-.674.143-1.326-.217-1.45-.808-.125-.587.323-1.182.998-1.326l8.97-1.912c.674-.143 1.326.217 1.45.808v-.004z" fill="#fff"/><path d="M146.207 192.667a2.61 2.61 0 0 1-5.108 1.086 2.605 2.605 0 0 1 2.009-3.095 2.613 2.613 0 0 1 3.099 2.009z" fill="#ecf0f1"/><path d="M145.311 192.857a1.692 1.692 0 0 1-1.307 2.014 1.692 1.692 0 0 1-2.014-1.307 1.698 1.698 0 1 1 3.321-.707z" fill="#ec4b53"/><path d="M144.304 193.074c.125.587-.323 1.182-.998 1.326l-8.974 1.917c-.67.143-1.326-.222-1.45-.808-.125-.587.323-1.182.998-1.33l8.97-1.912c.674-.143 1.326.217 1.45.808h.004z" fill="#fff"/><path d="M147.935 200.787c.3 1.409-.6 2.799-2.005 3.099-1.409.3-2.799-.6-3.099-2.009s.6-2.799 2.009-3.095a2.608 2.608 0 0 1 3.095 2.005z" fill="#ecf0f1"/><path d="M147.043 200.977a1.694 1.694 0 0 1-1.307 2.014 1.698 1.698 0 1 1 1.307-2.014z" fill="#ec4b53"/><path d="M146.036 201.194c.125.587-.323 1.182-.993 1.33l-8.974 1.912c-.674.143-1.326-.217-1.45-.804-.125-.591.323-1.182.998-1.33l8.97-1.912c.674-.143 1.326.222 1.45.808v-.004z" fill="#fff"/><path d="M149.671 208.907c.3 1.409-.6 2.799-2.009 3.099-1.409.3-2.794-.6-3.099-2.009a2.607 2.607 0 0 1 2.009-3.095c1.409-.3 2.794.6 3.099 2.009v-.004z" fill="#ecf0f1"/><path d="M148.775 209.096a1.692 1.692 0 0 1-1.307 2.014 1.698 1.698 0 1 1 1.307-2.014z" fill="#ec4b53"/><path d="M147.764 209.318c.125.587-.323 1.182-.993 1.326l-8.974 1.912c-.67.143-1.326-.217-1.45-.804-.125-.587.323-1.182.998-1.33l8.97-1.912c.673-.143 1.324.217 1.449.808z" fill="#fff"/><path d="M151.399 217.031a2.61 2.61 0 0 1-2.005 3.095c-1.409.3-2.799-.6-3.099-2.005a2.608 2.608 0 1 1 5.104-1.09z" fill="#ecf0f1"/><path d="M150.507 217.221a1.698 1.698 0 0 1-1.307 2.014 1.692 1.692 0 0 1-2.014-1.307 1.696 1.696 0 0 1 1.307-2.014 1.7 1.7 0 0 1 2.014 1.307z" fill="#ec4b53"/><path d="M149.5 217.438c.125.587-.323 1.182-.998 1.326l-8.97 1.912c-.674.143-1.326-.217-1.45-.808-.125-.587.323-1.187.998-1.33l8.97-1.912c.67-.143 1.326.217 1.45.808v.004z" fill="#fff"/><path d="M153.135 225.151c.3 1.409-.6 2.794-2.009 3.099-1.409.3-2.799-.6-3.099-2.009s.596-2.794 2.009-3.099a2.607 2.607 0 0 1 3.095 2.009h.004z" fill="#ecf0f1"/><path d="M152.239 225.345a1.692 1.692 0 0 1-1.307 2.014 1.692 1.692 0 0 1-2.014-1.307 1.698 1.698 0 1 1 3.321-.707z" fill="#ec4b53"/><path d="M151.228 225.558c.125.587-.323 1.182-.993 1.33l-8.97 1.912c-.674.143-1.326-.222-1.45-.808-.129-.587.319-1.182.993-1.33l8.97-1.912c.669-.144 1.325.221 1.45.808z" fill="#fff"/><path d="M107.807 382.051s-7.422.462-7.422 4.263v12.614c0 1.39 1.575 1.298 2.503 1.298h9.828c.928 0 2.508.092 2.508-1.298v-12.614c0-3.801-7.422-4.263-7.422-4.263h.005z" fill="#ecf0f1"/><path d="M113.095 401.561c0-4.083-1.113-6.679-5.196-6.679h-.185c-4.083 0-5.196 2.596-5.196 6.679l-2.226 24.484c0 4.083 3.339 7.422 7.422 7.422h.185c4.083 0 7.422-3.339 7.422-7.422l-2.226-24.484zm-5.288-4.762a2.927 2.927 0 0 1 2.924 2.919 2.924 2.924 0 0 1-5.848 0 2.923 2.923 0 0 1 2.924-2.919zm0 33.98c-2.924 0-5.288-2.369-5.288-5.288s2.365-5.288 5.288-5.288a5.287 5.287 0 1 1 0 10.576z" fill="#fff"/><path d="M109.71 399.819c0 .841-.854 1.524-1.903 1.524s-1.903-.684-1.903-1.524v-17.727c0-.836.854-1.524 1.903-1.524 1.044 0 1.903.688 1.903 1.524v17.727z" fill="#3f3a3b"/><path d="M309.328 160.946l11.385 4.466 38.548-98.292-11.385-4.462-38.548 98.292v-.004z" fill="#fbb429"/><path d="M306.816 184.118l13.898-18.711-11.385-4.462-2.513 23.173zM353.973 53.98l6.711 2.633c1.843.725 2.707 2.965 1.921 4.974l-17.921 45.693-13.422-5.265 17.921-45.694c.791-2.013 2.947-3.067 4.79-2.341z" fill="#ff5b61"/><path d="M360.837 56.672c1.737.785 2.531 2.956 1.769 4.91l-17.921 45.694-3.201-1.256 19.353-49.348zm-26.226 46.655l19.357-49.352c-1.843-.721-3.995.333-4.785 2.346l-17.921 45.694 3.353 1.316-.004-.004z" fill="#ec4b53"/><path d="M305.989 185.536l.471.185 5.566-8.619-4.245-1.667-1.792 10.097v.004z" fill="#666"/><path d="M347.53 60.547l16.36 6.549 1.03.411-.439 1.118-13.348 34.036-.134.351-.305.222-2.508 1.815c-1.238.813-2.559-.702-1.187-1.954l2.199-1.593 12.771-32.567-15.325-6.138.891-2.249h-.005z" fill="#0e7886"/><path d="M304.483 177.619a4.878 4.878 0 0 1-5.921 3.556l-1.492-.369a4.879 4.879 0 0 1-3.556-5.917l1.801-7.228a4.879 4.879 0 0 1 5.917-3.556l1.492.369a4.879 4.879 0 0 1 3.556 5.917l-1.797 7.228z" fill="#ff5b61"/><path d="M296.502 162.886l10.97 2.73-1.52 6.111-10.97-2.73 1.52-6.106v-.005zm1.769-7.095l10.97 2.73-1.145 4.6-10.965-2.73 1.145-4.6h-.005z" fill="#fbab08"/><path d="M337.761 20.554c-.005.009-12.48 25.639-12.286 25.953l5.293 2.125 5.672.605c.319-.189 1.316-28.673 1.316-28.683h.005z" fill="#fbb429"/><path d="M334.935 31.92c.804.199 1.603.337 2.393.425.245-6.226.439-11.787.439-11.792 0 .005-2.439 5.011-5.141 10.623a19 19 0 0 0 2.309.748v-.004z" fill="#666"/><path d="M303.028 169.583l1.192-4.776.619-2.494 1.145-4.6-4.457-1.109-1.145 4.6-.619 2.494-1.192 4.776-.328 1.335 4.457 1.109.328-1.335z" fill="#fbb429"/><path d="M296.502 162.886l10.97 2.73.619-2.494-10.965-2.73-.624 2.494z" fill="#fff"/><path d="M328.09 43.814c-1.007-.249-2.332 1.57-2.591 2.61-.009.028-.009.055-.014.088h-.009l-27.209 109.285 3.63.905 27.32-109.733c.12-1.122-.222-2.924-1.127-3.15v-.005z" fill="#ec4b53"/><path d="M331.748 44.724c-1.012-.254-2.332 1.57-2.591 2.61-.009.028-.005.055-.014.088l-.018-.005c.009-.028.023-.051.028-.079.028-.111.046-.24.06-.374l-27.32 109.733 3.672.915 27.288-109.613c.162-1.109-.176-3.039-1.113-3.27l.008-.005z" fill="#ff5b61"/><path d="M335.401 45.633c-1.012-.249-2.332 1.575-2.591 2.614-.009.028-.009.055-.014.083l-.018-.005c.009-.028.023-.051.028-.079.018-.079.032-.162.046-.254l-27.288 109.613 3.667.915 27.205-109.285-.009-.005c.009-.028.023-.051.028-.083.259-1.039-.055-3.27-1.062-3.524l.008.01z" fill="#ec4b53"/><path d="M357.996 172.913c-20.124-20.35-52.779-31.297-97.133-32.59a2.016 2.016 0 0 0-.693-.129c-1.404 0-2.794.014-4.175.028a319.45 319.45 0 0 0-4.171-.028 2.04 2.04 0 0 0-.693.129c-44.354 1.289-77.004 12.24-97.133 32.59-19.547 19.764-19.542 40.936-19.533 41.828a2.029 2.029 0 0 0 2.028 2.005l-1.547 148.641h240.527V216.745h.023a2.03 2.03 0 0 0 2.028-2.009c.009-.891.018-22.064-19.533-41.828l.005.005z" fill="#20d0c2"/><path d="M135.616 301.546l-.665 63.841h240.527v-65.356C362.781 279.459 329.355 256 256 256c-75.166 0-108.407 24.632-120.384 45.546z" fill="#15bdb1"/><path d="M382.037 466.556V327.79c0-19.477-25.574-61.674-126.042-61.674-100.467 0-126.037 42.197-126.037 61.674v138.766c0 12.983-2.434 35.708 19.487 35.708h213.11c21.921 0 19.482-22.725 19.482-35.708z" fill="#fbb429"/><g fill="#fff"><path d="M364.883 324.709c-.125-.448-3.192-11.122-18.452-21.648-19.93-13.745-50.358-20.72-90.436-20.72s-70.506 6.97-90.436 20.72c-15.26 10.526-18.323 21.2-18.452 21.648a2.43 2.43 0 0 0 1.695 2.979c.217.06.439.092.656.092a2.444 2.444 0 0 0 2.342-1.769c.028-.097 2.919-9.723 16.988-19.256 13.15-8.914 38.959-19.542 87.207-19.542s74.057 10.623 87.207 19.542c14.004 9.492 16.932 19.071 16.983 19.256a2.434 2.434 0 0 0 2.342 1.783 2.441 2.441 0 0 0 2.351-3.081l.005-.004z"/><path d="M361.779 319.296s-7.422.462-7.422 4.268v12.614c0 1.39 1.575 1.298 2.503 1.298h9.828c.928 0 2.503.092 2.503-1.298v-12.614c0-3.801-7.422-4.268-7.422-4.268h.01z"/><path d="M367.068 338.801c0-4.083-1.113-6.679-5.196-6.679h-.185c-4.078 0-5.196 2.596-5.196 6.679l-2.226 24.489c0 4.078 3.339 7.418 7.422 7.418h.185c4.083 0 7.422-3.339 7.422-7.418l-2.226-24.489zm-5.289-4.762a2.923 2.923 0 0 1 2.924 2.919 2.924 2.924 0 0 1-5.848 0 2.923 2.923 0 0 1 2.924-2.919zm0 33.975a5.29 5.29 0 0 1-5.288-5.289 5.287 5.287 0 1 1 10.576 0 5.286 5.286 0 0 1-5.288 5.289z"/></g><path d="M363.682 337.059c0 .836-.854 1.524-1.903 1.524-1.044 0-1.903-.688-1.903-1.524v-17.727c0-.841.859-1.524 1.903-1.524 1.048 0 1.903.684 1.903 1.524v17.727zm-5.686-164.146c-20.124-20.35-52.779-31.297-97.133-32.59a2.016 2.016 0 0 0-.693-.129c-1.404 0-2.794.014-4.175.028a319.45 319.45 0 0 0-4.171-.028 2.04 2.04 0 0 0-.693.129c-44.354 1.289-77.004 12.24-97.133 32.59-19.547 19.764-19.542 40.936-19.533 41.828a2.029 2.029 0 0 0 2.028 2.005h.018a2.027 2.027 0 0 0 2.009-2.046c-.005-.203.06-20.498 18.452-39.024 20.087-20.239 53.388-30.789 99.022-31.389 45.633.6 78.939 11.154 99.022 31.389 18.327 18.466 18.452 38.682 18.452 39.024a2.035 2.035 0 0 0 2.009 2.051h.023a2.03 2.03 0 0 0 2.028-2.009c.01-.893.02-22.065-19.532-41.829z" fill="#ecf0f1"/><g fill="#fff"><path d="M372.91 203.706s-7.418.462-7.418 4.263v12.614c0 1.39 1.575 1.298 2.503 1.298h9.828c.928 0 2.503.092 2.503-1.298v-12.614c0-3.801-7.422-4.263-7.422-4.263h.006z"/><path d="M378.194 223.216c0-4.078-1.113-6.679-5.191-6.679h-.189c-4.078 0-5.191 2.596-5.191 6.679l-2.226 24.484c0 4.083 3.339 7.418 7.422 7.418h.189c4.083 0 7.418-3.335 7.418-7.418l-2.226-24.484h-.006zm-5.288-4.762zm0 33.976a5.284 5.284 0 0 1-5.284-5.288 5.286 5.286 0 1 1 10.573 0 5.29 5.29 0 0 1-5.289 5.288z"/></g><path d="M374.813 221.475c0 .841-.854 1.524-1.903 1.524-1.044 0-1.898-.688-1.898-1.524v-17.727c0-.836.854-1.524 1.898-1.524 1.048 0 1.903.688 1.903 1.524v17.727z" fill="#ecf0f1"/><path d="M131.667 489.881c2.222 7.011 7.122 12.383 17.778 12.383h213.11c10.655 0 15.556-5.372 17.778-12.383h-248.67.004z" fill="#f5a209"/></svg>